<svg xmlns="http://www.w3.org/2000/svg" xmlns:xlink="http://www.w3.org/1999/xlink" width="1920" zoomAndPan="magnify" viewBox="0 0 1440 809.999993" height="1080" preserveAspectRatio="xMidYMid meet" version="1.0"><defs><clipPath id="c9671db23c"><path d="M 607 290 L 835.5 290 L 835.5 519 L 607 519 Z M 607 290 " clip-rule="nonzero"/></clipPath></defs><g clip-path="url(#c9671db23c)"><path fill="#000000" d="M 783.964844 452.0625 C 785.125 454.988281 784.863281 455.824219 784.757812 456.105469 C 784.476562 456.773438 784.011719 457.277344 783.367188 457.609375 C 781.5625 457.1875 779.175781 457.351562 778.042969 456.242188 C 775.917969 454.214844 773.644531 452.367188 771.226562 450.695312 C 768.8125 449.023438 766.277344 447.546875 763.632812 446.273438 C 760.984375 444.996094 758.253906 443.933594 755.441406 443.082031 C 752.628906 442.234375 749.765625 441.605469 746.855469 441.203125 C 726.636719 437.832031 707.152344 441.238281 688.070312 447.890625 C 683.816406 449.378906 679.660156 451.15625 675.007812 452.980469 L 652.652344 405.460938 C 663.59375 397.835938 674.640625 391.101562 684.570312 382.992188 C 698.902344 371.292969 710.082031 357 714.207031 338.390625 C 715.074219 333.777344 715.429688 329.128906 715.273438 324.4375 C 715.273438 321.875 714.410156 319.148438 717.535156 318.144531 C 721.082031 317.007812 721.902344 320.085938 723.011719 322.433594 C 734.484375 346.828125 745.957031 371.21875 757.433594 395.605469 C 765.980469 413.765625 774.53125 431.921875 783.085938 450.074219 C 783.417969 450.75 783.617188 451.175781 783.964844 452.0625 Z M 678.796875 462.085938 C 680.601562 465.605469 683.390625 470.589844 684.644531 473.03125 C 700.710938 468.078125 700.386719 464.230469 695.417969 454.710938 Z M 670.792969 464.84375 L 654.988281 472.316406 C 664.179688 486.589844 673.1875 500.453125 682.082031 514.382812 C 684.074219 517.503906 686.53125 519.132812 690.125 517.539062 C 693.230469 516.160156 693.730469 513.003906 691.738281 508.761719 C 685.347656 495.144531 678.9375 481.527344 672.511719 467.914062 C 672.042969 466.90625 671.421875 465.96875 670.792969 464.859375 Z M 772.59375 293.699219 C 772.109375 292.863281 771.457031 292.191406 770.628906 291.691406 C 769.800781 291.1875 768.902344 290.917969 767.9375 290.878906 C 767 290.871094 766.117188 291.085938 765.292969 291.527344 C 764.464844 291.964844 763.796875 292.578125 763.28125 293.359375 C 760.339844 297.558594 757.4375 301.804688 754.578125 306.105469 C 754.039062 306.855469 753.726562 307.695312 753.644531 308.617188 C 753.5625 309.539062 753.722656 310.417969 754.121094 311.253906 C 754.261719 311.550781 754.429688 311.828125 754.628906 312.09375 C 754.824219 312.359375 755.042969 312.601562 755.289062 312.820312 C 755.53125 313.042969 755.792969 313.238281 756.074219 313.410156 C 756.355469 313.582031 756.652344 313.722656 756.960938 313.835938 C 757.269531 313.949219 757.585938 314.03125 757.910156 314.085938 C 758.238281 314.136719 758.5625 314.15625 758.894531 314.144531 C 759.222656 314.132812 759.546875 314.089844 759.867188 314.015625 C 760.1875 313.941406 760.5 313.835938 760.796875 313.703125 C 761.640625 313.269531 762.335938 312.667969 762.882812 311.894531 C 765.792969 307.730469 768.886719 303.253906 771.796875 298.78125 C 772.3125 297.859375 772.597656 296.867188 772.65625 295.8125 C 772.6875 295.472656 772.746094 295.136719 772.808594 294.800781 L 772.929688 294.1875 Z M 817.964844 354.699219 C 817.859375 353.734375 817.53125 352.855469 816.976562 352.0625 C 816.421875 351.269531 815.710938 350.65625 814.839844 350.226562 C 814.003906 349.828125 813.121094 349.660156 812.195312 349.71875 C 811.269531 349.78125 810.414062 350.058594 809.632812 350.5625 C 805.191406 353.164062 800.78125 355.863281 796.398438 358.589844 C 795.605469 359.058594 794.980469 359.695312 794.523438 360.5 C 794.070312 361.304688 793.847656 362.167969 793.855469 363.09375 C 793.890625 363.964844 794.125 364.785156 794.558594 365.542969 C 795.007812 366.335938 795.628906 366.957031 796.417969 367.410156 C 797.210938 367.859375 798.0625 368.074219 798.972656 368.054688 C 799.917969 368.042969 800.785156 367.777344 801.574219 367.257812 C 805.988281 364.683594 810.644531 361.898438 815.148438 359.015625 C 815.992188 358.382812 816.65625 357.597656 817.140625 356.660156 C 817.324219 356.351562 817.507812 356.078125 817.660156 355.800781 L 818.058594 355.308594 Z M 835 436.222656 C 834.699219 435.34375 834.203125 434.59375 833.519531 433.96875 C 832.832031 433.34375 832.039062 432.921875 831.140625 432.699219 C 826.207031 431.289062 821.183594 430.003906 816.191406 428.714844 C 815.296875 428.472656 814.402344 428.464844 813.507812 428.695312 C 812.609375 428.921875 811.832031 429.359375 811.164062 430.003906 C 810.566406 430.640625 810.136719 431.375 809.878906 432.207031 C 809.617188 433.082031 809.601562 433.964844 809.824219 434.847656 C 810.050781 435.734375 810.488281 436.496094 811.132812 437.140625 C 811.800781 437.796875 812.585938 438.234375 813.492188 438.457031 C 818.394531 439.835938 823.664062 441.277344 828.84375 442.53125 C 829.886719 442.691406 830.917969 442.632812 831.9375 442.347656 C 832.273438 442.257812 832.609375 442.195312 832.917969 442.132812 L 833.5625 442.074219 L 833.929688 441.550781 C 834.554688 440.816406 834.960938 439.972656 835.152344 439.027344 C 835.34375 438.078125 835.292969 437.144531 835 436.222656 Z M 644.214844 407.835938 C 635.761719 411.96875 627.457031 415.359375 619.839844 419.90625 C 619.179688 420.320312 618.539062 420.761719 617.917969 421.234375 C 617.296875 421.707031 616.695312 422.203125 616.121094 422.730469 C 615.542969 423.253906 614.992188 423.804688 614.460938 424.378906 C 613.933594 424.953125 613.433594 425.546875 612.957031 426.167969 C 612.484375 426.785156 612.035156 427.425781 611.617188 428.082031 C 611.199219 428.742188 610.8125 429.414062 610.453125 430.109375 C 610.09375 430.800781 609.765625 431.507812 609.472656 432.230469 C 609.175781 432.953125 608.914062 433.6875 608.683594 434.429688 C 608.453125 435.175781 608.253906 435.929688 608.089844 436.691406 C 607.929688 437.457031 607.796875 438.222656 607.703125 438.996094 C 607.609375 439.773438 607.546875 440.546875 607.519531 441.328125 C 607.496094 442.109375 607.503906 442.886719 607.546875 443.664062 C 607.589844 444.445312 607.664062 445.21875 607.777344 445.992188 C 607.890625 446.761719 608.035156 447.527344 608.214844 448.289062 C 608.394531 449.046875 608.609375 449.796875 608.855469 450.535156 C 609.101562 451.277344 609.378906 452.003906 609.691406 452.71875 C 609.96875 453.449219 610.28125 454.164062 610.625 454.867188 C 610.96875 455.566406 611.34375 456.25 611.75 456.917969 C 612.15625 457.585938 612.589844 458.230469 613.054688 458.859375 C 613.519531 459.484375 614.011719 460.089844 614.535156 460.671875 C 615.054688 461.257812 615.597656 461.8125 616.167969 462.347656 C 616.742188 462.878906 617.335938 463.386719 617.949219 463.863281 C 618.566406 464.34375 619.207031 464.792969 619.863281 465.214844 C 620.519531 465.636719 621.195312 466.027344 621.890625 466.386719 C 622.582031 466.746094 623.289062 467.074219 624.011719 467.367188 C 624.738281 467.664062 625.472656 467.925781 626.21875 468.152344 C 626.964844 468.378906 627.71875 468.574219 628.484375 468.734375 C 629.25 468.894531 630.019531 469.019531 630.796875 469.109375 C 631.570312 469.199219 632.347656 469.25 633.128906 469.269531 C 633.910156 469.289062 634.691406 469.273438 635.46875 469.21875 C 636.25 469.167969 637.023438 469.082031 637.796875 468.957031 C 638.566406 468.835938 639.332031 468.675781 640.085938 468.484375 C 649.425781 465.242188 658.546875 461.472656 667.453125 457.175781 Z M 771.523438 378.703125 C 768.738281 373.191406 763.867188 371.40625 755.9375 373.570312 L 765.839844 394.574219 C 772.886719 389.484375 774.472656 384.527344 771.523438 378.703125 Z M 771.523438 378.703125 " fill-opacity="1" fill-rule="nonzero"/></g></svg>